<?xml version="1.0" encoding="UTF-8" standalone="no"?>
<!-- Created with Inkscape (http://www.inkscape.org/) -->

<svg
   width="512"
   height="512"
   viewBox="0 0 512 512"
   version="1.1"
   id="svg5"
   inkscape:version="1.1.2 (0a00cf5339, 2022-02-04)"
   sodipodi:docname="scale.svg"
   xmlns:inkscape="http://www.inkscape.org/namespaces/inkscape"
   xmlns:sodipodi="http://sodipodi.sourceforge.net/DTD/sodipodi-0.dtd"
   xmlns="http://www.w3.org/2000/svg"
   xmlns:svg="http://www.w3.org/2000/svg">
  <sodipodi:namedview
     id="namedview7"
     pagecolor="#505050"
     bordercolor="#eeeeee"
     borderopacity="1"
     inkscape:pageshadow="0"
     inkscape:pageopacity="0"
     inkscape:pagecheckerboard="0"
     inkscape:document-units="px"
     showgrid="false"
     showborder="false"
     inkscape:zoom="0.57314319"
     inkscape:cx="17.447647"
     inkscape:cy="369.89011"
     inkscape:window-width="2112"
     inkscape:window-height="1155"
     inkscape:window-x="0"
     inkscape:window-y="0"
     inkscape:window-maximized="1"
     inkscape:current-layer="layer1" />
  <defs
     id="defs2" />
  <g
     inkscape:label="Layer 1"
     inkscape:groupmode="layer"
     id="layer1">
    <path
       style="fill:#f9f9f9;stroke-width:0.520176"
       d="M 59.04257,511.30574 C 43.09679,510.95753 41.21822,510.82235 37.90682,509.78487 32.55698,508.1087 29.21171,506.53336 24.41193,503.42994 15.65778,497.76979 9.70911,490.96286 4.2652,480.37694 L 1.05328,474.13077 V 348.74297 223.35518 l 2.94289,-5.81813 c 1.61864,-3.19997 3.89553,-7.21656 5.05991,-8.92574 6.53183,-9.58844 18.04693,-17.88282 29.09345,-20.95631 6.20532,-1.72653 27.00642,-2.05994 129.55479,-2.07669 l 92.2054,-0.0153 -18.27932,18.12768 -18.2793,18.12769 -76.53832,0.008 c -88.46911,0.008 -98.62047,0.30326 -103.94941,3.02206 -2.20412,1.12457 -4.95365,6.02361 -5.85771,10.43717 -0.81503,3.97918 -1.23657,198.88706 -0.46374,214.44705 0.85451,17.20574 1.57974,19.75159 6.45616,22.66428 2.37192,1.41673 3.74862,1.81452 8.01731,2.31668 7.42544,0.87349 217.90288,0.85018 226.33933,-0.0251 6.48947,-0.67327 9.17931,-1.76625 11.72328,-4.76357 3.35562,-3.95363 3.49875,-7.75773 3.83504,-101.92942 l 0.30013,-84.04537 16.65262,-16.12389 c 17.1324,-16.58845 18.56314,-17.8772 19.17417,-17.27113 0.62519,0.62012 0.33925,200.00126 -0.30085,209.77269 -0.66071,10.08631 -1.95642,15.40363 -5.40632,22.18665 -5.75085,11.30697 -13.49958,18.91349 -24.65045,24.19804 -7.26122,3.44115 -10.84241,4.0737 -26.2288,4.63266 -15.59228,0.56644 -187.12493,0.53529 -213.41097,-0.0388 z m 294.12581,-17.57187 v -18.12768 h 25.07645 25.07645 v 18.12768 18.1277 h -25.07645 -25.07645 z m 80.97604,0.0691 v -18.19676 l 9.79549,-0.0173 c 22.95134,-0.0409 26.55858,-1.37884 30.52643,-11.32258 1.06606,-2.67165 1.18138,-4.039 1.44592,-17.14634 l 0.28747,-14.24319 17.8931,-0.13624 17.89308,-0.13624 -0.0174,1.94905 c -0.0977,11.53484 -1.10266,36.23747 -1.56466,38.46337 -0.85168,4.10344 -5.19074,12.6894 -8.83764,17.48757 -7.63164,10.04088 -19.0722,17.51657 -30.84005,20.15211 -2.42161,0.54233 -8.21131,0.84737 -19.99559,1.05347 l -16.58704,0.29009 z m 41.7941,-116.60419 v -24.86082 h 17.76247 17.7625 v 24.86082 24.86082 h -17.7625 -17.76247 z M 125.91297,339.78098 V 294.5942 l 17.11132,16.95824 17.11117,16.95824 84.50087,-83.77543 84.50085,-83.77545 -17.10866,-16.96153 -17.10865,-16.96154 h 45.58068 45.58068 v 45.18874 45.18873 l -17.10865,-16.96154 -17.10867,-16.96153 -84.50205,83.77423 -84.50208,83.77424 17.10535,16.96409 17.10532,16.96407 h -45.5787 -45.57878 z m 350.15122,-43.50937 0.13548,-25.50826 17.63187,-0.13643 17.63189,-0.13642 v 25.64462 25.64461 h -17.76741 -17.76741 z m 0.22262,-55.1168 c -0.19161,-0.18997 -0.34829,-11.72687 -0.34829,-25.63772 v -25.29244 h 17.76247 17.7625 v 25.63773 25.63772 h -17.41421 c -9.5778,0 -17.57092,-0.15542 -17.76247,-0.34529 z M 0.53071,134.80574 v -24.86082 h 17.76261 17.76241 v 24.86082 24.86082 H 18.29332 0.53071 Z m 475.40781,0 v -24.86082 h 17.76247 17.7625 v 24.86082 24.86082 h -17.7625 -17.76247 z M 0.29555,65.020975 c 0.4469,-21.73272 0.90367,-26.37094 3.0923,-31.38973 3.11844,-7.15081 6.46661,-12.11166 11.77077,-17.44086 8.41602,-8.45544 17.75023,-13.47641 27.94978,-15.03453 2.01134,-0.30725 10.6511,-0.69301 19.19931,-0.85724 L 77.84975,5.0000001e-6 V 18.199165 36.398325 l -10.5791,0.0134 c -17.8499,0.0236 -22.00245,0.77305 -25.94559,4.68232 -4.14463,4.10901 -4.81643,7.21225 -5.20662,24.04897 l -0.3238,13.9842 -17.89732,0.13624 L 0,79.399695 Z m 475.99126,14.02057 c -0.19161,-0.18997 -0.34966,-5.6088 -0.35133,-12.04197 -0.004,-14.93262 -0.70581,-19.60213 -3.58581,-23.85347 -1.67386,-2.47088 -4.97957,-4.89263 -7.84534,-5.74747 -1.03823,-0.3097 -8.29393,-0.69358 -16.12379,-0.85307 l -14.23612,-0.29 v -18.0563 -18.05631 l 12.66883,4.4e-4 c 6.96786,2.3e-4 15.25486,0.24176 18.41552,0.53672 18.86237,1.76028 35.75231,14.72493 43.63307,33.49254 1.89905,4.52255 2.38112,9.80822 2.83638,31.10048 L 512,79.386835 h -17.68246 c -9.72535,0 -17.83918,-0.15542 -18.03073,-0.34529 z M 108.67293,18.270645 V 0.142955 h 25.07657 25.07638 v 18.12769 18.12768 H 133.7495 108.67293 Z m 80.97609,0.0806 v -18.2083 h 25.85337 25.85339 l -0.32704,17.73924 c -0.17981,9.75658 -0.39242,17.81697 -0.47229,17.91199 -0.0799,0.095 -11.56676,0.30609 -25.52636,0.46906 l -25.38107,0.2963 z m 88.42061,17.65997 -6.92214,-0.16099 -0.002,-9.69623 c -10e-4,-5.33293 -0.15523,-13.36709 -0.34301,-17.85368 l -0.34126,-8.15746 h 25.94188 25.94188 v 18.12768 18.12769 l -18.67673,-0.11302 c -10.2722,-0.0622 -21.79171,-0.18555 -25.59888,-0.27399 z m 75.09875,-17.74058 V 0.142945 h 25.07645 25.07645 v 18.12769 18.12768 h -25.07645 -25.07645 z"
       id="path39" />
  </g>
</svg>
